<?xml version="1.0" encoding="UTF-8" standalone="no"?>
<!DOCTYPE svg PUBLIC "-//W3C//DTD SVG 1.1//EN" "http://www.w3.org/Graphics/SVG/1.1/DTD/svg11.dtd">
<svg version="1.1" xmlns="http://www.w3.org/2000/svg" xmlns:xlink="http://www.w3.org/1999/xlink" preserveAspectRatio="xMidYMid meet" viewBox="0 0 519 519" width="519" height="519"><defs><path d="M50 244.25C48.1 238.99 41.36 229.96 35.12 230.16C34.09 230.23 33.08 230.51 32.15 230.99C31.23 231.47 30.42 232.14 29.78 232.95C29.13 233.76 28.67 234.7 28.41 235.71C28.15 236.71 28.11 237.76 28.28 238.79C28.87 243.17 32.93 246.77 36.57 248.82C40.82 251.22 51.77 252.09 51.78 252.09C51.89 252.09 50.16 244.7 50 244.25Z" id="iZBPrTTlp"></path><path d="M285.46 168.12C285.46 168.12 286.06 160.42 292.89 158.69C299.72 156.96 308.72 160.38 311.21 159.44" id="if4aWZjIH"></path><path d="M322.02 139.26C257.65 135.6 221.81 179.48 195.52 212.4C169.23 245.32 89.4 226.31 41.12 276.79C-7.17 327.26 16.25 356.52 37.51 385.79C58.77 415.06 79.2 419.47 79.2 443.59C79.2 467.72 90.89 499.91 136.95 507.22C183.01 514.53 230.59 469.94 263.5 486.78C296.42 503.61 351.66 516.77 385.48 507.22C419.31 497.67 409.08 462.59 445.62 450.89C482.15 439.19 517.3 402.61 512.18 363.1C507.06 323.59 477.8 316.28 465.36 278.24C452.93 240.2 435.42 210.94 425.22 194.85C404.58 183.73 386.4 142.91 322.02 139.26Z" id="c4naQUE7s"></path><path d="M465.74 513.18C465.74 511.06 398.44 509.34 315.42 509.34C232.39 509.34 165.09 511.06 165.09 513.18C165.09 515.3 232.39 517.01 315.42 517.01C398.44 517.01 465.74 515.3 465.74 513.18Z" id="b33jQqv8v"></path><path d="M205.57 156.52C201.17 156.52 197.61 160.08 197.61 164.48C197.61 170 197.61 214.17 197.61 219.69C197.61 224.09 201.17 227.65 205.57 227.65C219.69 227.65 332.69 227.65 346.82 227.65C351.21 227.65 354.78 224.09 354.78 219.69C354.78 214.17 354.78 170 354.78 164.48C354.78 160.08 351.21 156.52 346.82 156.52C318.57 156.52 219.69 156.52 205.57 156.52Z" id="cqLDot3Tf"></path><path d="M205.57 156.52C201.17 156.52 197.61 160.08 197.61 164.48C197.61 170 197.61 214.17 197.61 219.69C197.61 224.09 201.17 227.65 205.57 227.65C219.69 227.65 332.69 227.65 346.82 227.65C351.21 227.65 354.78 224.09 354.78 219.69C354.78 214.17 354.78 170 354.78 164.48C354.78 160.08 351.21 156.52 346.82 156.52C318.57 156.52 219.69 156.52 205.57 156.52Z" id="af97yioKr"></path><path d="M197.61 215.14L197.61 240.83L211.93 224.33" id="ba3TwwfAE"></path><path d="M197.61 215.14L197.61 240.83L211.93 224.33" id="e2jqDrUtRP"></path><path d="M217.09 195.54C216.72 195.54 216.35 195.47 216 195.33C215.66 195.18 215.35 194.97 215.08 194.71C214.82 194.45 214.61 194.13 214.47 193.79C214.33 193.44 214.25 193.08 214.25 192.7C214.25 192.7 214.25 192.7 214.25 192.7C214.25 192.33 214.33 191.96 214.47 191.62C214.61 191.27 214.82 190.96 215.08 190.7C215.35 190.43 215.66 190.22 216 190.08C216.35 189.94 216.72 189.86 217.09 189.86C227.24 189.86 308.4 189.86 318.54 189.86C319.3 189.86 320.02 190.16 320.55 190.7C321.08 191.23 321.38 191.95 321.38 192.7C321.38 192.7 321.38 192.7 321.38 192.7C321.38 193.46 321.08 194.18 320.55 194.71C320.02 195.24 319.3 195.54 318.54 195.54C318.54 195.54 318.54 195.54 318.54 195.54C257.67 195.54 223.85 195.54 217.09 195.54Z" id="abozIOWm1"></path><path d="M217.09 208.58C216.72 208.58 216.35 208.5 216 208.36C215.66 208.22 215.35 208.01 215.08 207.75C214.82 207.48 214.61 207.17 214.47 206.83C214.33 206.48 214.25 206.11 214.25 205.74C214.25 205.74 214.25 205.74 214.25 205.74C214.26 204.99 214.56 204.27 215.09 203.74C215.62 203.21 216.34 202.91 217.09 202.91C227.24 202.91 308.4 202.91 318.54 202.91C319.3 202.91 320.02 203.21 320.55 203.74C321.08 204.28 321.38 205 321.38 205.75C321.38 205.75 321.38 205.75 321.38 205.75C321.38 206.5 321.08 207.22 320.55 207.75C320.01 208.28 319.29 208.58 318.54 208.58C318.54 208.58 318.54 208.58 318.54 208.58C257.67 208.58 223.85 208.58 217.09 208.58Z" id="c1ssGOWtua"></path><path d="M232.95 172.31C232.95 166.67 228.39 162.11 222.76 162.11C217.12 162.11 212.56 166.67 212.56 172.31C212.56 177.94 217.12 182.5 222.76 182.5C228.39 182.5 232.95 177.94 232.95 172.31Z" id="a1EeDIRxhX"></path><path d="M205.57 252.79C201.17 252.79 197.61 256.35 197.61 260.75C197.61 266.27 197.61 310.44 197.61 315.96C197.61 320.36 201.17 323.92 205.57 323.92C219.69 323.92 332.69 323.92 346.82 323.92C351.21 323.92 354.78 320.36 354.78 315.96C354.78 310.44 354.78 266.27 354.78 260.75C354.78 256.35 351.21 252.79 346.82 252.79C318.57 252.79 219.69 252.79 205.57 252.79Z" id="b29ovGNsHJ"></path><path d="M205.57 252.79C201.17 252.79 197.61 256.35 197.61 260.75C197.61 266.27 197.61 310.44 197.61 315.96C197.61 320.36 201.17 323.92 205.57 323.92C219.69 323.92 332.69 323.92 346.82 323.92C351.21 323.92 354.78 320.36 354.78 315.96C354.78 310.44 354.78 266.27 354.78 260.75C354.78 256.35 351.21 252.79 346.82 252.79C318.57 252.79 219.69 252.79 205.57 252.79Z" id="jY3nTowu"></path><path d="M197.61 311.4L197.61 337.09L211.93 320.59" id="f4VUUA3Lwf"></path><path d="M197.61 311.4L197.61 337.09L211.93 320.59" id="aigHWycAB"></path><path d="M217.09 291.8C216.72 291.8 216.35 291.73 216 291.58C215.66 291.44 215.35 291.23 215.08 290.97C214.82 290.7 214.61 290.39 214.47 290.05C214.33 289.7 214.25 289.33 214.25 288.96C214.25 288.96 214.25 288.96 214.25 288.96C214.25 288.59 214.33 288.22 214.47 287.87C214.61 287.53 214.82 287.22 215.08 286.95C215.35 286.69 215.66 286.48 216 286.34C216.35 286.2 216.72 286.12 217.09 286.12C227.24 286.12 308.4 286.12 318.54 286.12C319.3 286.12 320.02 286.42 320.55 286.95C321.08 287.49 321.38 288.21 321.38 288.96C321.38 288.96 321.38 288.96 321.38 288.96C321.38 289.71 321.08 290.44 320.55 290.97C320.02 291.5 319.3 291.8 318.54 291.8C318.54 291.8 318.54 291.8 318.54 291.8C257.67 291.8 223.85 291.8 217.09 291.8Z" id="bwCUPlRUx"></path><path d="M217.09 304.84C216.72 304.84 216.35 304.76 216 304.62C215.66 304.48 215.35 304.27 215.08 304C214.82 303.74 214.61 303.43 214.47 303.08C214.33 302.74 214.25 302.37 214.25 302C214.25 302 214.25 302 214.25 302C214.25 301.62 214.33 301.26 214.47 300.91C214.61 300.57 214.82 300.25 215.08 299.99C215.35 299.73 215.66 299.52 216 299.37C216.35 299.23 216.72 299.16 217.09 299.16C227.24 299.16 308.4 299.16 318.54 299.16C319.3 299.16 320.02 299.46 320.55 299.99C321.08 300.52 321.38 301.24 321.38 302C321.38 302 321.38 302 321.38 302C321.38 302.75 321.08 303.47 320.55 304C320.02 304.54 319.3 304.84 318.54 304.84C318.54 304.84 318.54 304.84 318.54 304.84C257.67 304.84 223.85 304.84 217.09 304.84Z" id="aydoIoN6N"></path><path d="M232.95 268.56C232.95 262.93 228.39 258.37 222.76 258.37C217.12 258.37 212.56 262.93 212.56 268.56C212.56 274.2 217.12 278.76 222.76 278.76C228.39 278.76 232.95 274.2 232.95 268.56Z" id="c2AdRRsny"></path><path d="M87.89 385.71C88.18 380.14 92.01 369.54 98.04 367.92C99.05 367.69 100.1 367.66 101.12 367.85C102.14 368.05 103.11 368.45 103.96 369.04C104.82 369.63 105.53 370.4 106.07 371.28C106.61 372.17 106.96 373.16 107.09 374.19C107.79 378.54 104.96 383.19 102.07 386.22C98.68 389.73 88.46 393.73 88.46 393.73C88.35 393.73 87.87 386.19 87.89 385.71Z" id="eM8816yW"></path><path d="M81.23 356.68C82.36 351.21 87.74 341.31 93.96 340.64C94.99 340.55 96.03 340.69 97.01 341.03C97.99 341.38 98.89 341.92 99.64 342.64C100.4 343.35 100.99 344.21 101.39 345.17C101.79 346.13 101.98 347.16 101.95 348.2C101.95 352.62 98.48 356.76 95.17 359.3C91.29 362.28 80.57 364.68 80.57 364.69C80.46 364.69 81.12 357.15 81.23 356.68Z" id="b7p92BORDZ"></path><path d="M79.24 322.38C80.35 316.91 85.74 307.01 91.96 306.34C92.99 306.25 94.04 306.39 95.01 306.73C95.99 307.08 96.89 307.62 97.65 308.34C98.4 309.05 99 309.91 99.39 310.87C99.79 311.83 99.98 312.86 99.96 313.9C99.96 318.32 96.48 322.47 93.17 325C89.29 327.99 78.57 330.39 78.57 330.39C78.47 330.39 79.14 322.85 79.24 322.38Z" id="gbf9eIc3T"></path><path d="M75.78 290.14C76.91 284.67 82.29 274.77 88.51 274.1C89.54 274.01 90.58 274.15 91.56 274.49C92.54 274.83 93.44 275.38 94.19 276.09C94.95 276.81 95.54 277.67 95.94 278.63C96.34 279.59 96.53 280.62 96.5 281.66C96.5 286.07 93.03 290.22 89.73 292.76C85.84 295.74 75.12 298.15 75.12 298.15C75.01 298.15 75.69 290.61 75.78 290.14Z" id="b3GSnr8Nno"></path><path d="M63.36 264.33C63 258.76 65.59 247.78 71.39 245.5C72.37 245.14 73.41 245 74.44 245.07C75.48 245.15 76.49 245.44 77.4 245.93C78.32 246.42 79.12 247.09 79.76 247.91C80.39 248.73 80.85 249.67 81.1 250.68C82.3 254.93 80.02 259.86 77.49 263.18C74.54 267.09 64.85 272.23 64.84 272.23C64.74 272.23 63.38 264.81 63.36 264.33Z" id="h190CB4yGI"></path><path d="M81.88 386.6C78.91 381.87 70.38 374.5 64.33 376.04C63.34 376.33 62.41 376.82 61.62 377.49C60.82 378.16 60.18 378.98 59.72 379.92C59.27 380.85 59.02 381.87 58.98 382.91C58.95 383.95 59.13 384.98 59.52 385.94C61.04 390.09 65.78 392.75 69.77 393.96C74.42 395.33 85.3 393.82 85.31 393.82C85.42 393.82 82.13 386.95 81.88 386.6Z" id="a2N2vff4dW"></path><path d="M74.5 354.13C70.89 349.91 61.27 343.91 55.56 346.35C54.61 346.78 53.77 347.4 53.08 348.18C52.39 348.96 51.87 349.87 51.56 350.86C51.25 351.85 51.15 352.9 51.27 353.93C51.39 354.96 51.72 355.95 52.25 356.85C54.38 360.71 59.46 362.62 63.59 363.22C68.44 363.94 78.98 360.79 78.98 360.79C79.09 360.79 74.81 354.49 74.5 354.13Z" id="a5gGo8hYI"></path><path d="M72.66 321.79C69.05 317.57 59.43 311.57 53.72 314.01C52.77 314.44 51.93 315.07 51.24 315.85C50.56 316.63 50.04 317.55 49.74 318.54C49.43 319.53 49.33 320.57 49.45 321.61C49.57 322.64 49.91 323.63 50.44 324.52C52.57 328.38 57.66 330.29 61.79 330.9C66.62 331.59 77.13 328.45 77.14 328.45C77.25 328.45 72.97 322.15 72.66 321.79Z" id="c2paj3NYED"></path><path d="M69.54 292.1C65.93 287.88 56.31 281.88 50.6 284.32C49.66 284.75 48.81 285.38 48.13 286.16C47.44 286.94 46.93 287.85 46.62 288.84C46.31 289.84 46.22 290.88 46.34 291.91C46.46 292.94 46.8 293.94 47.33 294.83C49.46 298.69 54.55 300.6 58.67 301.2C63.5 301.91 74.02 298.76 74.03 298.76C74.14 298.76 69.85 292.46 69.54 292.1Z" id="i2K5spkCwj"></path><path d="M59.7 267.07C55.6 263.28 45.47 258.37 40.02 261.42C39.12 261.95 38.35 262.67 37.76 263.52C37.16 264.37 36.75 265.34 36.55 266.36C36.35 267.39 36.37 268.44 36.61 269.45C36.85 270.46 37.3 271.42 37.93 272.24C40.46 275.85 45.73 277.19 49.95 277.33C54.79 277.48 64.89 273.22 64.9 273.21C65.01 273.21 60.09 267.4 59.7 267.07Z" id="a6pS17R81"></path><path d="M95.65 424.59C93.62 419.43 90.84 411.99 87.89 402.94C86.41 398.42 84.9 393.49 83.44 388.24C82.69 385.59 82.01 382.93 81.28 380.08C81.19 379.66 80.45 376.28 80.35 375.86C80.02 374.47 79.84 372.94 79.56 371.46C78.63 365.39 78.04 359.28 77.78 353.14C77.47 346.9 77.35 340.59 77.2 334.28C77.06 327.96 76.88 321.67 76.38 315.5C75.95 309.47 75.08 303.48 73.8 297.57C72.49 292.07 70.7 286.7 68.44 281.52C66.41 276.83 64.11 272.27 61.54 267.85C59.22 263.73 56.85 260.11 54.73 256.91C52.6 253.71 50.59 251.02 48.92 248.87C45.57 244.46 43.48 242.11 43.48 242.11C43.48 242.11 45.63 244.43 49.07 248.76C50.79 250.92 52.83 253.57 55.09 256.73C57.35 259.89 59.75 263.48 62.17 267.55C64.83 271.92 67.23 276.44 69.36 281.08C71.76 286.28 73.7 291.68 75.15 297.22C76.58 303.16 77.59 309.19 78.16 315.26C78.8 321.48 79.13 327.81 79.37 334.12C79.61 340.43 79.91 346.73 80.34 352.9C80.74 358.92 81.47 364.9 82.53 370.83C82.83 372.27 83.01 373.66 83.38 375.08C83.49 375.5 84.3 378.86 84.41 379.28C85.15 381.92 85.91 384.65 86.7 387.21C88.25 392.39 89.85 397.23 91.42 401.65C94.52 410.55 97.43 417.83 99.56 422.91C101.69 427.98 103.03 430.91 103.03 430.91C103.18 431.17 103.27 431.46 103.3 431.76C103.33 432.06 103.3 432.37 103.2 432.65C103.11 432.94 102.96 433.21 102.76 433.43C102.56 433.66 102.31 433.84 102.04 433.97C101.77 434.1 101.47 434.17 101.17 434.17C100.86 434.18 100.56 434.13 100.28 434.01C100 433.9 99.75 433.73 99.54 433.51C99.33 433.3 99.16 433.04 99.05 432.76C99.05 432.76 99.05 432.76 99.05 432.76L98.97 432.7C98.11 430.73 97.01 428.03 95.65 424.59Z" id="b8p2uKkUY"></path><path d="M129.02 378.23C130.88 372.96 137.56 363.88 143.8 364.06C144.84 364.12 145.85 364.4 146.78 364.87C147.7 365.35 148.51 366.01 149.16 366.82C149.81 367.63 150.29 368.57 150.55 369.57C150.81 370.58 150.86 371.63 150.69 372.65C150.13 377.03 146.09 380.67 142.47 382.73C138.24 385.16 127.3 386.08 127.29 386.08C127.18 386.08 128.87 378.69 129.02 378.23Z" id="b1mqHEV1Wm"></path><path d="M130.9 348.5C133.53 343.58 141.51 335.62 147.66 336.73C148.68 336.94 149.64 337.37 150.48 337.98C151.32 338.59 152.02 339.36 152.54 340.26C153.06 341.16 153.39 342.16 153.49 343.19C153.6 344.22 153.49 345.27 153.17 346.25C151.97 350.5 147.41 353.47 143.55 354.97C138.94 356.73 127.99 355.99 127.99 355.99C127.88 355.99 130.67 348.92 130.9 348.5Z" id="a1AF6FC2K"></path><path d="M138.73 315.06C141.36 310.14 149.34 302.18 155.49 303.28C156.51 303.5 157.47 303.92 158.31 304.53C159.15 305.14 159.85 305.92 160.37 306.82C160.89 307.72 161.21 308.71 161.32 309.75C161.43 310.78 161.32 311.82 161 312.81C159.8 317.05 155.24 320.02 151.38 321.53C146.77 323.3 135.83 322.55 135.82 322.55C135.71 322.55 138.5 315.48 138.73 315.06Z" id="c1eI492lmM"></path><path d="M144.59 283.21C147.22 278.29 155.19 270.33 161.35 271.44C162.36 271.65 163.32 272.08 164.16 272.69C165 273.3 165.71 274.07 166.23 274.97C166.75 275.87 167.07 276.87 167.18 277.9C167.29 278.93 167.18 279.98 166.86 280.96C165.65 285.21 161.1 288.18 157.24 289.68C152.64 291.39 141.69 290.7 141.67 290.7C141.57 290.7 144.36 283.63 144.59 283.21Z" id="d12tPeVccf"></path><path d="M140.02 254.89C141.22 249.44 146.85 239.67 153.08 239.11C154.11 239.05 155.15 239.21 156.12 239.57C157.09 239.94 157.98 240.5 158.71 241.23C159.45 241.96 160.03 242.84 160.41 243.81C160.78 244.77 160.95 245.81 160.9 246.85C160.9 251.26 157.3 255.34 153.89 257.8C149.94 260.7 139.2 262.88 139.19 262.89C139.08 262.89 139.91 255.36 140.02 254.89Z" id="a3qCdKYf5H"></path><path d="M123.05 377.32C121.54 371.94 115.47 362.44 109.22 362.21C108.18 362.2 107.15 362.41 106.19 362.82C105.24 363.23 104.38 363.84 103.68 364.61C102.98 365.37 102.45 366.28 102.12 367.27C101.79 368.25 101.67 369.3 101.77 370.33C102.05 374.73 105.84 378.63 109.31 380.92C113.39 383.63 124.25 385.27 124.25 385.27C124.36 385.27 123.15 377.79 123.05 377.32Z" id="c64EqTqzsf"></path><path d="M125.15 344.14C122.84 339.05 115.41 330.58 109.19 331.29C108.16 331.43 107.17 331.79 106.29 332.34C105.4 332.9 104.65 333.63 104.07 334.49C103.48 335.35 103.09 336.33 102.91 337.36C102.74 338.38 102.78 339.44 103.03 340.44C103.97 344.75 108.31 348.03 112.1 349.78C116.58 351.83 127.54 351.81 127.56 351.81C127.68 351.81 125.34 344.59 125.15 344.14Z" id="b2qpctLvk9"></path><path d="M132.59 312.6C130.29 307.52 122.85 299.05 116.64 299.76C115.61 299.91 114.62 300.27 113.74 300.82C112.86 301.37 112.11 302.11 111.53 302.97C110.96 303.83 110.57 304.81 110.39 305.83C110.22 306.86 110.26 307.91 110.51 308.91C111.45 313.22 115.79 316.5 119.58 318.24C124.02 320.3 135 320.28 135 320.28C135.12 320.28 132.79 313.06 132.59 312.6Z" id="dn73sgbxT"></path><path d="M138.05 283.26C135.75 278.17 128.31 269.71 122.1 270.42C121.07 270.56 120.08 270.92 119.2 271.48C118.32 272.03 117.57 272.76 116.99 273.63C116.42 274.49 116.03 275.47 115.85 276.49C115.68 277.51 115.72 278.56 115.97 279.57C116.91 283.87 121.25 287.16 125.04 288.9C129.49 290.96 140.45 290.93 140.46 290.93C140.58 290.93 138.25 283.72 138.05 283.26Z" id="j1qDyyKFVr"></path><path d="M135.73 256.48C132.88 251.67 124.56 244.08 118.46 245.46C117.46 245.72 116.52 246.19 115.7 246.83C114.89 247.48 114.22 248.29 113.74 249.21C113.26 250.13 112.98 251.14 112.92 252.18C112.86 253.22 113.01 254.25 113.38 255.23C114.78 259.41 119.45 262.19 123.41 263.51C128.06 265.06 138.96 263.84 138.97 263.84C139.08 263.84 135.97 256.9 135.73 256.48Z" id="bYmYSpWu3"></path><path d="M132.91 231.84C132.6 226.27 128.7 215.68 122.66 214.11C121.65 213.88 120.6 213.86 119.58 214.06C118.56 214.26 117.6 214.67 116.75 215.26C115.9 215.86 115.18 216.63 114.65 217.52C114.12 218.41 113.78 219.4 113.65 220.44C112.98 224.8 115.84 229.42 118.74 232.46C122.14 235.91 132.39 239.85 132.39 239.86C132.5 239.86 132.93 232.32 132.91 231.84Z" id="bCZlwOi6"></path><path d="M125.43 417.71C124.95 412.18 124.38 404.27 124.14 394.74C124.01 389.93 123.96 384.83 124.06 379.37C124.06 376.63 124.2 373.89 124.3 370.96C124.33 370.52 124.58 367.08 124.61 366.65C124.68 365.21 124.95 363.7 125.1 362.21C125.92 356.14 127.07 350.12 128.55 344.17C130.03 338.16 131.72 332.01 133.36 325.92C135.01 319.82 136.64 313.75 137.91 307.69C139.2 301.78 140.08 295.79 140.52 289.75C140.83 284.11 140.64 278.45 139.94 272.83C139.34 267.79 138.45 262.78 137.26 257.84C136.21 253.23 134.96 249.07 133.83 245.4C132.7 241.73 131.55 238.58 130.57 236C128.61 230.84 127.28 227.96 127.28 227.96C127.28 227.96 128.67 230.8 130.74 235.93C131.77 238.49 132.97 241.63 134.22 245.27C135.47 248.91 136.77 253.06 137.92 257.67C139.22 262.62 140.23 267.64 140.94 272.7C141.77 278.37 142.09 284.1 141.9 289.83C141.59 295.94 140.83 302.03 139.65 308.03C138.45 314.18 137.01 320.34 135.48 326.46C133.95 332.58 132.41 338.7 131.08 344.74C129.75 350.62 128.75 356.57 128.07 362.56C127.95 364.02 127.72 365.41 127.69 366.88C127.67 367.31 127.49 370.76 127.47 371.2C127.47 373.94 127.38 376.78 127.47 379.46C127.47 384.86 127.65 389.96 127.88 394.66C128.33 404.08 129.08 411.89 129.65 417.35C130.21 422.81 130.69 425.89 130.69 425.89C130.76 426.19 130.77 426.49 130.71 426.79C130.65 427.09 130.54 427.37 130.36 427.62C130.19 427.87 129.97 428.08 129.72 428.24C129.46 428.4 129.17 428.51 128.87 428.55C128.57 428.6 128.27 428.58 127.98 428.5C127.68 428.42 127.41 428.28 127.18 428.09C126.94 427.91 126.74 427.67 126.6 427.4C126.46 427.14 126.38 426.84 126.35 426.54C126.35 426.54 126.35 426.52 126.35 426.48L126.31 426.43C126.04 424.31 125.75 421.4 125.43 417.71Z" id="c6oPaaEtS"></path><path d="M89.34 505.96L75.01 422.56L154.57 422.56L140.26 505.96L89.34 505.96Z" id="edeSe11yM"></path><path d="M337.79 402.66C337.79 341.51 288.21 291.94 227.06 291.94C165.91 291.94 116.34 341.51 116.34 402.66C116.34 463.81 165.91 513.39 227.06 513.39C288.21 513.39 337.79 463.81 337.79 402.66Z" id="c1EnQCI4Wv"></path><path d="M175.36 460.35C167.99 453.27 162.28 444.64 158.64 435.09C154.52 424.38 152.48 412.98 152.63 401.5C152.55 391.7 154.28 381.98 157.73 372.81C160.85 364.38 165.52 356.61 171.5 349.9C183.32 336.98 198.58 327.71 215.49 323.18C223.81 320.95 232.38 319.82 240.99 319.81C248.12 319.78 255.24 320.63 262.16 322.33C268.87 323.99 275.28 326.65 281.19 330.22C287.02 333.73 292.24 338.15 296.66 343.33C301.29 348.91 304.82 355.31 307.06 362.2C309.65 370.05 310.93 378.27 310.85 386.53C310.76 402.43 305.07 417.78 294.77 429.9C290.32 434.98 285.03 439.26 279.13 442.56C274.08 445.53 268.34 447.16 262.48 447.29C258.44 447.32 254.51 446.03 251.28 443.61C249.65 442.41 248.31 440.84 247.39 439.03C246.47 437.23 245.99 435.23 245.98 433.2C239.11 442.87 229.82 447.71 218.13 447.71C208.59 447.71 200.98 444.45 195.28 437.93C189.58 431.41 186.74 423.39 186.76 413.88C186.79 406.64 188.05 399.45 190.49 392.64C192.87 385.75 196.29 379.26 200.63 373.4C204.94 367.62 210.44 362.83 216.77 359.36C223.07 355.8 230.19 353.94 237.43 353.95C242.46 353.9 247.42 355.11 251.86 357.47C256.19 359.77 259.7 363.35 261.9 367.72C262 367.42 262.76 364.98 262.85 364.68C263.28 363.39 264 362.22 264.96 361.27C265.93 360.32 267.1 359.61 268.39 359.2C269.68 358.79 271.05 358.69 272.39 358.91C273.72 359.13 274.99 359.66 276.08 360.47C276.78 361.03 277.33 361.76 277.7 362.58C278.06 363.4 278.23 364.3 278.18 365.19C278.18 366.05 278.04 366.91 277.76 367.72C276.28 372.68 264.46 412.37 262.98 417.33C261.3 423 260.46 426.89 260.46 428.99C260.46 432.57 262.28 434.36 265.92 434.36C270.68 434.36 275.36 432.17 279.95 427.79C284.9 422.85 288.72 416.9 291.15 410.34C294 403.17 295.47 395.51 295.45 387.79C295.52 380.98 294.53 374.21 292.51 367.71C290.8 362.1 288.09 356.85 284.52 352.21C281.15 347.97 277.09 344.34 272.5 341.48C267.92 338.59 262.92 336.43 257.68 335.07C252.29 333.69 246.74 333 241.18 333.02C234.12 333.03 227.1 334.02 220.31 335.97C213.35 337.95 206.72 340.93 200.62 344.82C194.46 348.71 188.88 353.45 184.05 358.9C179.06 364.67 175.17 371.31 172.59 378.5C169.72 386.27 168.28 394.49 168.34 402.78C168.18 412.61 169.97 422.38 173.59 431.53C176.69 439.46 181.6 446.56 187.94 452.24C194.05 457.56 201.11 461.69 208.76 464.39C216.81 467.23 225.29 468.66 233.83 468.6C242.96 468.61 252.04 467.23 260.75 464.49C261.62 464.2 262.55 464.06 263.48 464.07C264.36 464.04 265.24 464.19 266.05 464.53C266.87 464.87 267.6 465.38 268.2 466.02C269.36 467.22 270 468.82 269.99 470.48C270.11 471.82 269.74 473.15 268.94 474.24C268.15 475.32 267 476.08 265.69 476.38C254.82 479.7 243.53 481.44 232.16 481.52C221.39 481.59 210.7 479.68 200.62 475.91C191.25 472.45 182.66 467.16 175.36 460.35ZM248.24 414.96C248.88 412.7 252.09 401.42 257.86 381.12C257.48 380.29 257.28 379.84 257.23 379.75C256.62 378.63 255.88 377.59 255.02 376.64C253.87 375.32 252.63 374.09 251.29 372.96C249.57 371.58 247.61 370.51 245.51 369.81C240.07 367.88 234.09 368.08 228.79 370.39C225.91 371.63 223.26 373.36 220.96 375.49C218.56 377.73 216.43 380.23 214.6 382.96C212.69 385.78 211.08 388.79 209.79 391.94C208.5 395.09 207.49 398.34 206.8 401.67C206.11 404.83 205.76 408.06 205.75 411.29C205.74 413.37 205.87 415.44 206.12 417.5C206.35 419.32 206.75 421.12 207.33 422.86C207.84 424.44 208.56 425.94 209.48 427.32C210.33 428.6 211.4 429.71 212.63 430.63C213.95 431.59 215.43 432.3 216.99 432.73C218.84 433.25 220.75 433.49 222.67 433.47C228.42 433.53 234.03 431.68 238.62 428.21C238.62 428.21 238.62 428.2 238.62 428.19C243.89 422.92 247.1 418.51 248.24 414.96Z" id="b1URMyEnag"></path><path d="M376.39 317.61C375.86 318.56 373.98 323.62 374.5 324.82C375.02 326.03 375.63 326.71 376.77 326.9C377.92 327.1 378.85 329.18 380.75 329.55C381.94 329.78 383.15 329.9 384.36 329.92C384.66 330.14 385 330.28 385.36 330.35C385.72 330.41 386.09 330.39 386.44 330.29C387.57 329.92 388.52 329.34 389.28 326.13C389.74 324.54 389.87 322.86 389.65 321.21C389.63 320.78 389.5 318.63 389.26 314.76L380.53 309.95C378.12 314.42 376.74 316.97 376.39 317.61Z" id="a5dnjABODM"></path><path d="M396.23 501.08C396.23 503.05 403.3 506.8 406.33 508.15C409.37 509.5 414.75 510.55 419.13 511.18C423.51 511.81 432.6 513.59 429.95 510.17C427.31 506.75 411.1 497.71 410.42 496.7C409.59 495.7 408.65 494.79 407.63 493.98C407.22 493.76 405.13 492.66 401.37 490.69C397.94 496.3 396.23 499.76 396.23 501.08Z" id="a1lnuuOc3Z"></path><path d="M411.23 506.56C413.17 509.5 415.81 511.92 418.9 513.61C423.71 516.21 431.12 519.18 437.59 517.4C448.2 514.48 421.5 498.37 421.5 498.37C421.5 498.37 411.97 504.95 409.43 503.86C409.79 504.4 411.05 506.29 411.23 506.56Z" id="in8YIrxzJ"></path><path d="M412.48 505.13C415.4 509.55 419.83 512.76 424.94 514.16C433.66 516.65 436.15 516.03 438.02 513.54" id="gkkEXn0ty"></path><path d="M396.91 499.53C396.91 499.53 406.53 506.42 411.22 506.55" id="b5uzKhMBrS"></path><path d="M376.03 312.35C376.03 312.35 384.57 326.51 386.4 329.79C388.22 333.07 411.25 359.37 420.39 382.1C429.53 404.83 438.31 425.27 437.95 431.84C437.59 438.42 407.59 493.95 407.59 493.95C406.96 493.62 401.99 490.98 401.37 490.65C401.37 490.65 410.88 438.35 409.79 432.85C408.69 427.36 375.04 372.87 375.04 372.87C375.04 372.87 359.31 361.9 352.73 349.09" id="kyV00LuYa"></path><path d="M377.23 347.67C377.23 347.67 372.42 357.92 372.42 359.37C372.42 360.83 399.12 439.48 406.8 457.4C411.67 468.88 415.94 480.6 419.61 492.52C419.61 492.52 422.53 496.12 420.35 499.83C418.16 503.53 409.38 506.05 407.55 502.75C405.72 499.45 387.8 482.31 380.12 465.07C372.43 447.84 361.47 418.61 355.25 407.65C347.04 393.61 339.71 379.07 333.3 364.12C325.25 345.1 316.96 324.5 316.96 324.5C327.82 325.41 338.75 324.18 349.14 320.89C365.97 315.41 373.19 304.91 373.19 304.91C373.19 304.91 377.47 315.85 378.58 317.97" id="a2k5nTyqJa"></path><path d="M379.73 378.15L371.31 356.25L380.74 348.17" id="a29G9ScaxQ"></path><path d="M388.82 355.57C378.32 355.98 372.48 356.2 371.31 356.25C371.31 356.25 371.31 349.51 368.28 345.13C365.25 340.76 364.58 340.08 364.24 338.74C364.06 337.51 364.06 336.26 364.24 335.03" id="a1hbMfne6h"></path><path d="M411.06 429.01C411.06 429.01 422.17 434.73 429.92 434.06" id="e17nNdBUZ"></path><path d="M413.08 432.37C413.08 432.37 420.83 438.77 427.51 440.45" id="ciVzHJaOt"></path><path d="M368.62 331.33C368.28 332.34 369.97 337.05 371.03 339.41C372.08 341.77 375.4 343.45 375.4 345.13C375.4 346.82 371.03 349.85 371.03 349.85" id="g1IjGhKNzi"></path><path d="M339.66 340.08C339.66 340.08 337.64 346.82 334.27 349.51C334.05 349.69 332.93 350.59 330.91 352.21" id="d4FtdEZoX"></path><path d="M326.18 338.74C326.18 338.74 331.9 357.59 340.32 372.09C348.74 386.58 367.98 417.89 368.61 423.95C369.23 430.02 368.61 436.08 373.32 439.11C378.04 442.14 377.7 443.48 378.37 447.53C378.95 450.42 379.85 453.25 381.07 455.94C381.07 455.94 394.54 478.79 399.25 487.21C402.69 493.09 406.59 498.69 410.9 503.96" id="auF1nDzgP"></path><path d="M321.14 335.71C324.51 338.4 334.61 340.76 348.42 338.11C362.22 335.47 377.38 323.68 378.72 319.59C380.07 315.5 373.2 304.92 373.2 304.92C373.2 304.92 365.24 316.22 343.02 319.93C320.79 323.63 317 324.5 317 324.5C317.83 326.74 317.77 333.01 321.14 335.71Z" id="d9ImnAg0m"></path><path d="M353.46 203.55C349.44 202.08 341.43 203.55 341.43 203.55C341.43 203.55 316.6 206.52 311.39 208.67C310.91 208.87 299.72 215.29 299.36 215.62C295.33 218.92 277.71 227.03 272.98 237.27C267.6 248.87 314.84 318.65 317.04 324.51C319.24 330.37 330.77 331.79 341.38 330.33C351.99 328.88 361.3 326.72 368.98 317.93C370.37 316.18 371.54 314.26 372.46 312.22C373.56 309.94 373.84 307.35 373.25 304.88C370.51 293.46 363.51 260.52 358.89 238.74C366.59 243.71 382.58 253.8 391.9 257.36C404.34 262.17 413.85 258.82 413.85 254.79C413.85 250.77 411.25 245.62 405.76 241.96C400.27 238.35 357.47 205.02 353.46 203.55Z" id="i5zBv8SuSB"></path><path d="M368.61 232.24C373 232.24 370.44 234.07 368.61 234.81C366.78 235.54 380.31 233.71 379.95 235.9C379.59 238.09 370.02 242.49 370.02 242.49C376.44 246.1 383.54 248.34 390.87 249.07C403.68 250.54 395.68 258.21 395.68 258.21C395.68 258.21 375.09 250.65 358.87 238.7C358.83 238.13 358.67 235.24 358.36 230.06C362.86 231.36 366.27 232.09 368.61 232.24Z" id="bgM8x0h2p"></path><path d="M292.15 260.05C293.6 260.36 308.61 254.19 303.49 259.32C298.36 264.44 292.15 264.44 294.71 265.89C297.27 267.35 303.85 267.36 301.66 268.82C299.47 270.27 303.85 276.86 314.83 290.03C325.81 303.2 330.56 312.34 342.63 318.56C354.71 324.77 362.75 324.77 355.44 326.6C348.13 328.43 340.43 329.55 340.07 332.8C340.07 332.8 340.43 335.36 336.04 337.19C331.65 339.01 329.09 338.65 325.8 337.19C322.5 335.72 321.41 335.72 320.67 333.89C319.94 332.06 316.99 324.46 316.99 324.46C316.64 323.71 314.9 319.97 311.75 313.24L310.07 310.84L308.6 309.74L282.99 265.85L293.61 254.93C291.67 258.13 291.18 259.84 292.15 260.05Z" id="b1LDHb5et"></path><path d="M352.77 203.17C348.75 201.7 340.74 203.17 340.74 203.17C340.74 203.17 315.91 206.14 310.7 208.29C310.22 208.48 299.03 214.9 298.67 215.24C294.64 218.53 277.02 226.64 272.29 236.89C266.91 248.48 314.15 318.27 316.35 324.12C318.55 329.98 330.08 331.4 340.69 329.94C351.3 328.49 360.61 326.34 368.29 317.55C369.68 315.79 370.85 313.87 371.77 311.83C372.87 309.55 373.15 306.96 372.56 304.5C369.82 293.07 362.82 260.13 358.2 238.35C365.9 243.32 381.89 253.41 391.21 256.97C403.65 261.78 413.16 258.44 413.16 254.41C413.16 250.38 410.56 245.23 405.07 241.58C399.58 237.97 356.78 204.63 352.77 203.17Z" id="fo6oAJq5Q"></path><path d="M278.82 229.78C278.82 229.78 274.43 234.59 272.72 236.82C263.56 248.61 234.4 286.31 234.12 289.36C233.84 292.4 235.19 294.46 242.32 297.2C249.45 299.94 297.15 252.12 297.15 252.12" id="cczgEEBXQ"></path><path d="M246.42 277.98C246.42 277.98 250.03 282.01 254.47 286.03C258.91 290.04 266.49 292.6 260.69 292.24C254.88 291.88 243.85 287.43 243.85 287.43C243.85 287.43 240.55 289.99 244.58 292.56C248.61 295.12 249.39 293.29 261.05 299.13C272.7 304.98 291.48 308.76 291.48 308.76C291.38 308.96 290.88 309.99 289.97 311.83C260.11 304.21 243.52 299.97 240.21 299.12C240.21 299.12 232.99 295.51 234.02 289.5C235.06 283.49 251.86 264.25 251.86 264.25C254.26 261.09 273.51 235.88 275.91 232.73C275.91 232.73 278.16 229.37 281.54 228.96C274.52 238.77 249.93 273.08 246.42 277.98Z" id="amxUTao3c"></path><path d="M278.82 229.78C278.82 229.78 274.43 234.59 272.72 236.82C263.56 248.61 234.4 286.31 234.12 289.36C233.84 292.4 235.19 294.46 242.32 297.2C249.45 299.94 297.15 252.12 297.15 252.12" id="c1fekI11Pk"></path><path d="M375.36 227.59C365.46 234.26 359.96 237.96 358.86 238.7C361.26 238.37 372.66 234.33 372.66 234.33" id="alaABQCca"></path><path d="M374.68 233.99L378.39 233.32" id="b5PUFAT0Z"></path><path d="M252.44 277.72C249.89 277.64 247.36 278.12 245.02 279.12" id="e23DNjfDJ8"></path><path d="M288.39 261.19C288.39 261.19 297.65 258.35 300.12 256.47" id="ajX3C1c56"></path><path d="M302.39 255.53C302.39 255.53 303.91 254.21 304.47 254.21" id="adDOyx1Ce"></path><path d="M358.86 238.72L357.35 223.25" id="b19Nkh1cYv"></path><path d="M234.04 289.5C234.04 289.5 231.91 297.64 245.56 301.02C252.04 302.62 294.94 313.05 294.94 313.05C294.94 313.05 298.77 304.82 296.58 304.82C294.4 304.82 254.89 278.49 254.89 278.49" id="a2TUqcqIGr"></path><path d="M246.42 277.98C246.42 277.98 250.03 282.01 254.47 286.03C258.91 290.04 266.49 292.6 260.69 292.24C254.88 291.88 243.85 287.43 243.85 287.43C243.85 287.43 240.55 289.99 244.58 292.56C248.61 295.12 249.39 293.29 261.05 299.13C272.7 304.98 291.48 308.76 291.48 308.76C291.4 308.97 290.96 310.02 290.16 311.91C260.18 304.25 243.52 300 240.19 299.15C240.19 299.15 230.73 294.67 234.01 289.53C237.74 283.63 251.85 264.27 251.85 264.27C254.3 261.14 273.95 236.13 276.4 233C276.7 231.86 277.37 230.85 278.29 230.12C279.22 229.39 280.36 228.99 281.54 228.96C281.54 228.96 281.54 228.96 281.54 228.96C260.47 258.37 248.76 274.71 246.42 277.98Z" id="adAnH0i8"></path><path d="M234.04 289.5C234.04 289.5 231.91 297.64 245.56 301.02C252.04 302.62 294.94 313.05 294.94 313.05C294.94 313.05 298.77 304.82 296.58 304.82C294.4 304.82 254.89 278.49 254.89 278.49" id="aoLjSq2Kl"></path><path d="M311.76 313.29C312.86 315.13 315.37 324.63 315.37 327.55C315.37 330.47 315.01 330.47 313.18 330.47C311.35 330.47 306.6 323.52 305.5 322.06C304.39 320.59 301.89 320.59 298.54 318.45C297.61 317.86 296.81 317.08 296.19 316.17C295.57 315.26 295.15 314.23 294.94 313.15C295.05 312.59 295.6 309.84 296.58 304.87C305.97 309.26 311.03 312.06 311.76 313.29Z" id="a73pvgSfI"></path><path d="M290.57 311.69L292.76 304.9" id="c4xuePuyhx"></path><path d="M292.84 228.05C284.75 229.2 277.81 230.36 277.81 230.36C279.31 229.31 291.33 220.9 292.83 219.85C300.26 223.36 311.09 231.29 323.5 239.73C317.37 237.39 300.94 226.89 292.84 228.05Z" id="a5KSF8wiV"></path><path d="M397.35 253.66C397.35 253.66 393.74 266.1 392.23 273.41C390.71 280.72 380.53 309.95 380.53 309.95C381.4 310.49 388.43 314.88 389.31 315.43C389.31 315.43 408.69 275.19 412.35 266.41C416 257.63 414.91 251.05 411.25 247.39" id="fWKdZrhQw"></path><path d="M397.35 253.66C397.35 253.66 393.74 266.1 392.23 273.41C390.71 280.72 380.53 309.95 380.53 309.95C381.4 310.49 388.43 314.88 389.31 315.43C389.31 315.43 408.69 275.19 412.35 266.41C416 257.63 414.91 251.05 411.25 247.39" id="a1gHN8jjwF"></path><path d="M382.19 305.77C382.85 305.77 391.17 310.38 391.17 310.38C391.17 310.38 382.19 305.77 382.19 305.77Z" id="b9iMNsQNc"></path><path d="M304.29 226.59C296.88 220.87 292.84 219.86 292.84 219.86C292.34 220.19 288.3 222.89 287.79 223.23C287.03 220.76 287.27 218.1 288.47 215.82C290.49 212.11 297.56 208.41 304.63 205.72C311.7 203.02 319.78 200.66 324.83 200.66C329.88 200.66 331.23 202.68 331.23 205.38C331.23 208.07 331.23 216.49 329.55 222.89C327.86 229.29 324.5 239.73 324.5 239.73C322.48 239.39 311.7 232.32 304.29 226.59Z" id="a58RTwKSo"></path><path d="M315.1 216.73C312.7 218.75 310.09 220.53 307.32 222.02C307.32 222.02 305.46 215.49 300.79 215.49C296.13 215.49 288.98 218.55 288.98 218.55C288.98 218.55 288.98 216.06 294.89 212.94C295.28 212.74 297.25 211.7 300.79 209.83L314.48 204.54L321.32 204.6C319.25 210.82 317.17 214.86 315.1 216.73Z" id="h1PA65dxO1"></path><path d="M304.29 226.59C296.88 220.87 292.84 219.86 292.84 219.86C292.34 220.19 288.3 222.89 287.79 223.23C287.03 220.76 287.27 218.1 288.47 215.82C290.49 212.11 297.56 208.41 304.63 205.72C311.7 203.02 319.78 200.66 324.83 200.66C329.88 200.66 331.23 202.68 331.23 205.38C331.23 208.07 331.23 216.49 329.55 222.89C327.86 229.29 324.5 239.73 324.5 239.73C322.48 239.39 311.7 232.32 304.29 226.59Z" id="kXvovmGeI"></path><path d="M302.67 212.33C304.81 221.84 318.57 232.98 321.91 232.98C325.25 232.98 324.98 216.67 323.88 211.92C322.79 207.17 318.3 194.41 318.3 194.41C318.3 194.41 300.78 185.99 294.56 196.97C298.53 201.32 301.32 206.6 302.67 212.33Z" id="cat4dk0fd"></path><path d="M315.1 216.73C312.7 218.75 310.09 220.53 307.32 222.02C307.32 222.02 305.46 215.49 300.79 215.49C296.13 215.49 288.98 218.55 288.98 218.55C288.98 218.55 288.98 216.06 294.89 212.94C295.28 212.74 297.25 211.7 300.79 209.83L314.48 204.54L321.32 204.6C319.25 210.82 317.17 214.86 315.1 216.73Z" id="b3SNu4U4C"></path><path d="M302.67 212.33C304.81 221.84 318.57 232.98 321.91 232.98C325.25 232.98 324.98 216.67 323.88 211.92C322.79 207.17 318.3 194.41 318.3 194.41C318.3 194.41 300.78 185.99 294.56 196.97C298.53 201.32 301.32 206.6 302.67 212.33Z" id="eG9Sev4bg"></path><path d="M292.51 199.59C298.06 208.73 308.79 213.89 314.74 211.51C320.7 209.13 324.75 201.46 323.16 189.54C322.81 186.92 320.53 185.85 319.79 183.53C317.17 175.11 314.49 167 313.55 163.9C312.35 159.93 302.83 155.95 292.9 158.74C282.98 161.53 281.38 169.81 282.97 179.34C285.55 186.36 288.74 193.13 292.51 199.59Z" id="k3peuIlb5f"></path><path d="M304.18 173.18C296.08 171.62 290.5 171.98 290.81 174.12C291.12 176.26 291.75 179.1 291.75 179.1C291.75 179.1 282.02 170.68 290.84 168.43C297.19 166.8 300.85 169.3 302.42 169.64C303.98 169.97 315.9 172.05 315.9 172.05C313.56 172.28 312.29 174.75 304.18 173.18Z" id="ejrGXcxvw"></path><path d="M292.11 199.98C297.67 209.12 308.4 214.28 314.35 211.9C320.3 209.52 324.35 201.85 322.77 189.93C322.42 187.31 320.13 186.24 319.4 183.91C316.78 175.5 314.1 167.39 313.16 164.29C311.96 160.32 302.43 156.34 292.51 159.13C282.59 161.92 280.99 170.19 282.58 179.73C285.16 186.75 288.35 193.52 292.11 199.98Z" id="b2ghlgkTX"></path><path d="M290.11 192.44C290.11 192.44 283.76 189.66 283.37 192.44C282.97 195.22 285.77 197.25 288.53 198.45C289.21 198.83 289.99 198.99 290.77 198.92C291.55 198.85 292.29 198.55 292.89 198.05" id="a1Sfm29Qmf"></path><path d="M290.11 192.44C290.11 192.44 283.76 189.66 283.37 192.44C282.97 195.22 285.77 197.25 288.53 198.45C289.21 198.83 289.99 198.99 290.77 198.92C291.55 198.85 292.29 198.55 292.89 198.05" id="d1x8GXrlpy"></path><path d="M316.08 176.74C316.08 176.74 309.01 175.06 312.04 184.49C312.64 186.35 316.75 188.53 316.75 188.53C316.75 188.53 316.42 191.56 314.73 191.9" id="b1lrgTz5pN"></path><path d="M316.08 176.74C316.08 176.74 309.01 175.06 312.04 184.49C312.64 186.35 316.75 188.53 316.75 188.53C316.75 188.53 316.42 191.56 314.73 191.9" id="f4kY6m63k"></path><path d="M311.09 198.63C311.09 198.63 306.04 199.64 304.02 197.28C304.02 197.28 311.09 198.63 311.09 198.63Z" id="cgPULJw6v"></path><path d="M311.09 198.63C311.09 198.63 306.04 199.64 304.02 197.28" id="aDx1zd5v0"></path><path d="M303.62 182.81C303.62 182.81 299.92 181.46 297.89 183.14C296.81 183.89 295.98 184.95 295.49 186.17" id="f3OONgY9aE"></path><path d="M303.62 182.81C303.62 182.81 299.92 181.46 297.89 183.14C296.81 183.89 295.98 184.95 295.49 186.17" id="b96bTXWmm"></path><path d="M303.52 188.56C303.04 187.45 302.17 186.76 301.57 187.01C300.97 187.27 300.88 188.38 301.35 189.49C301.83 190.6 302.7 191.29 303.3 191.04C303.89 190.78 303.99 189.67 303.52 188.56Z" id="b1gowK77ud"></path><path d="M315.63 182.67C315.15 181.56 314.28 180.87 313.68 181.12C313.08 181.38 312.98 182.49 313.46 183.6C313.93 184.71 314.81 185.4 315.4 185.15C316 184.89 316.1 183.78 315.63 182.67Z" id="bsIskLdtR"></path><path d="M291.64 188.57C290.91 186 289.45 186 290.91 184.54C292.36 183.07 293.47 182.35 293.1 180.15C292.72 177.95 286.88 174.29 288.71 172.1C290.53 169.91 289.8 167.29 304.8 171.01C319.79 174.72 329.31 168.82 324.92 163.32C320.53 157.83 316.87 157.11 316.87 157.11C316.87 157.11 325.29 153.5 318.34 149.79C311.39 146.09 295.66 146.19 286.88 153.09C278.1 159.99 279.93 165.9 279.93 165.9C279.93 165.9 275.12 166.63 274.8 173.94C274.49 181.25 288.35 194.05 288.35 194.05C289 192.95 292.37 191.13 291.64 188.57Z" id="g1981i53qf"></path><path d="M288.24 169.05C288.24 169.05 289.44 165.32 295.68 165.32C301.92 165.32 307.48 170.6 315.9 168.73C324.32 166.87 319.63 161.92 319.63 161.92" id="h2MlVJDEUY"></path><path d="M282.04 168.43C282.04 168.43 278.32 168.43 278.02 173.4C277.85 174.73 278.03 176.07 278.51 177.32C279 178.56 279.79 179.67 280.81 180.53" id="c3qjjbTCFB"></path><path d="M285.46 171.54C284.92 171.73 284.44 172.03 284.03 172.42C283.62 172.82 283.3 173.3 283.09 173.83C282.89 174.36 282.8 174.93 282.83 175.49C282.86 176.06 283.02 176.61 283.28 177.12" id="aJTtV7Bvc"></path><path d="M282.67 181.46L284.22 183.64" id="b15FtAQqbE"></path></defs><g><g><g><use xlink:href="#iZBPrTTlp" opacity="1" fill="#000000" fill-opacity="1"></use><g><use xlink:href="#iZBPrTTlp" opacity="1" fill-opacity="0" stroke="#000000" stroke-width="1" stroke-opacity="0"></use></g></g><g><use xlink:href="#if4aWZjIH" opacity="1" fill="#000000" fill-opacity="0"></use><g><use xlink:href="#if4aWZjIH" opacity="1" fill-opacity="0" stroke="#ffffff" stroke-width="0.68" stroke-opacity="1"></use></g></g><g><use xlink:href="#c4naQUE7s" opacity="1" fill="#254e58" fill-opacity="1"></use><g><use xlink:href="#c4naQUE7s" opacity="1" fill-opacity="0" stroke="#000000" stroke-width="1" stroke-opacity="0"></use></g></g><g><use xlink:href="#b33jQqv8v" opacity="1" fill="#000000" fill-opacity="1"></use><g><use xlink:href="#b33jQqv8v" opacity="1" fill-opacity="0" stroke="#000000" stroke-width="1" stroke-opacity="0"></use></g></g><g><use xlink:href="#cqLDot3Tf" opacity="1" fill="#9d4bff" fill-opacity="1"></use><g><use xlink:href="#cqLDot3Tf" opacity="1" fill-opacity="0" stroke="#000000" stroke-width="1" stroke-opacity="0"></use></g></g><g><use xlink:href="#af97yioKr" opacity="1" fill="#000000" fill-opacity="1"></use><g><use xlink:href="#af97yioKr" opacity="1" fill-opacity="0" stroke="#000000" stroke-width="1" stroke-opacity="0"></use></g></g><g><use xlink:href="#ba3TwwfAE" opacity="1" fill="#9d4bff" fill-opacity="1"></use><g><use xlink:href="#ba3TwwfAE" opacity="1" fill-opacity="0" stroke="#000000" stroke-width="1" stroke-opacity="0"></use></g></g><g><use xlink:href="#e2jqDrUtRP" opacity="1" fill="#000000" fill-opacity="1"></use><g><use xlink:href="#e2jqDrUtRP" opacity="1" fill-opacity="0" stroke="#000000" stroke-width="1" stroke-opacity="0"></use></g></g><g><use xlink:href="#abozIOWm1" opacity="1" fill="#ffffff" fill-opacity="1"></use><g><use xlink:href="#abozIOWm1" opacity="1" fill-opacity="0" stroke="#000000" stroke-width="1" stroke-opacity="0"></use></g></g><g><use xlink:href="#c1ssGOWtua" opacity="1" fill="#ffffff" fill-opacity="1"></use><g><use xlink:href="#c1ssGOWtua" opacity="1" fill-opacity="0" stroke="#000000" stroke-width="1" stroke-opacity="0"></use></g></g><g><use xlink:href="#a1EeDIRxhX" opacity="1" fill="#ffffff" fill-opacity="1"></use><g><use xlink:href="#a1EeDIRxhX" opacity="1" fill-opacity="0" stroke="#000000" stroke-width="1" stroke-opacity="0"></use></g></g><g><use xlink:href="#b29ovGNsHJ" opacity="1" fill="#9d4bff" fill-opacity="1"></use><g><use xlink:href="#b29ovGNsHJ" opacity="1" fill-opacity="0" stroke="#000000" stroke-width="1" stroke-opacity="0"></use></g></g><g><use xlink:href="#jY3nTowu" opacity="1" fill="#000000" fill-opacity="1"></use><g><use xlink:href="#jY3nTowu" opacity="1" fill-opacity="0" stroke="#000000" stroke-width="1" stroke-opacity="0"></use></g></g><g><use xlink:href="#f4VUUA3Lwf" opacity="1" fill="#9d4bff" fill-opacity="1"></use><g><use xlink:href="#f4VUUA3Lwf" opacity="1" fill-opacity="0" stroke="#000000" stroke-width="1" stroke-opacity="0"></use></g></g><g><use xlink:href="#aigHWycAB" opacity="1" fill="#000000" fill-opacity="1"></use><g><use xlink:href="#aigHWycAB" opacity="1" fill-opacity="0" stroke="#000000" stroke-width="1" stroke-opacity="0"></use></g></g><g><use xlink:href="#bwCUPlRUx" opacity="1" fill="#ffffff" fill-opacity="1"></use><g><use xlink:href="#bwCUPlRUx" opacity="1" fill-opacity="0" stroke="#000000" stroke-width="1" stroke-opacity="0"></use></g></g><g><use xlink:href="#aydoIoN6N" opacity="1" fill="#ffffff" fill-opacity="1"></use><g><use xlink:href="#aydoIoN6N" opacity="1" fill-opacity="0" stroke="#000000" stroke-width="1" stroke-opacity="0"></use></g></g><g><use xlink:href="#c2AdRRsny" opacity="1" fill="#ffffff" fill-opacity="1"></use><g><use xlink:href="#c2AdRRsny" opacity="1" fill-opacity="0" stroke="#000000" stroke-width="1" stroke-opacity="0"></use></g></g><g><use xlink:href="#eM8816yW" opacity="1" fill="#000000" fill-opacity="1"></use><g><use xlink:href="#eM8816yW" opacity="1" fill-opacity="0" stroke="#000000" stroke-width="1" stroke-opacity="0"></use></g></g><g><use xlink:href="#b7p92BORDZ" opacity="1" fill="#000000" fill-opacity="1"></use><g><use xlink:href="#b7p92BORDZ" opacity="1" fill-opacity="0" stroke="#000000" stroke-width="1" stroke-opacity="0"></use></g></g><g><use xlink:href="#gbf9eIc3T" opacity="1" fill="#000000" fill-opacity="1"></use><g><use xlink:href="#gbf9eIc3T" opacity="1" fill-opacity="0" stroke="#000000" stroke-width="1" stroke-opacity="0"></use></g></g><g><use xlink:href="#b3GSnr8Nno" opacity="1" fill="#000000" fill-opacity="1"></use><g><use xlink:href="#b3GSnr8Nno" opacity="1" fill-opacity="0" stroke="#000000" stroke-width="1" stroke-opacity="0"></use></g></g><g><use xlink:href="#h190CB4yGI" opacity="1" fill="#000000" fill-opacity="1"></use><g><use xlink:href="#h190CB4yGI" opacity="1" fill-opacity="0" stroke="#000000" stroke-width="1" stroke-opacity="0"></use></g></g><g><use xlink:href="#a2N2vff4dW" opacity="1" fill="#000000" fill-opacity="1"></use><g><use xlink:href="#a2N2vff4dW" opacity="1" fill-opacity="0" stroke="#000000" stroke-width="1" stroke-opacity="0"></use></g></g><g><use xlink:href="#a5gGo8hYI" opacity="1" fill="#000000" fill-opacity="1"></use><g><use xlink:href="#a5gGo8hYI" opacity="1" fill-opacity="0" stroke="#000000" stroke-width="1" stroke-opacity="0"></use></g></g><g><use xlink:href="#c2paj3NYED" opacity="1" fill="#000000" fill-opacity="1"></use><g><use xlink:href="#c2paj3NYED" opacity="1" fill-opacity="0" stroke="#000000" stroke-width="1" stroke-opacity="0"></use></g></g><g><use xlink:href="#i2K5spkCwj" opacity="1" fill="#000000" fill-opacity="1"></use><g><use xlink:href="#i2K5spkCwj" opacity="1" fill-opacity="0" stroke="#000000" stroke-width="1" stroke-opacity="0"></use></g></g><g><use xlink:href="#a6pS17R81" opacity="1" fill="#000000" fill-opacity="1"></use><g><use xlink:href="#a6pS17R81" opacity="1" fill-opacity="0" stroke="#000000" stroke-width="1" stroke-opacity="0"></use></g></g><g><use xlink:href="#b8p2uKkUY" opacity="1" fill="#000000" fill-opacity="1"></use><g><use xlink:href="#b8p2uKkUY" opacity="1" fill-opacity="0" stroke="#000000" stroke-width="1" stroke-opacity="0"></use></g></g><g><use xlink:href="#b1mqHEV1Wm" opacity="1" fill="#000000" fill-opacity="1"></use><g><use xlink:href="#b1mqHEV1Wm" opacity="1" fill-opacity="0" stroke="#000000" stroke-width="1" stroke-opacity="0"></use></g></g><g><use xlink:href="#a1AF6FC2K" opacity="1" fill="#000000" fill-opacity="1"></use><g><use xlink:href="#a1AF6FC2K" opacity="1" fill-opacity="0" stroke="#000000" stroke-width="1" stroke-opacity="0"></use></g></g><g><use xlink:href="#c1eI492lmM" opacity="1" fill="#000000" fill-opacity="1"></use><g><use xlink:href="#c1eI492lmM" opacity="1" fill-opacity="0" stroke="#000000" stroke-width="1" stroke-opacity="0"></use></g></g><g><use xlink:href="#d12tPeVccf" opacity="1" fill="#000000" fill-opacity="1"></use><g><use xlink:href="#d12tPeVccf" opacity="1" fill-opacity="0" stroke="#000000" stroke-width="1" stroke-opacity="0"></use></g></g><g><use xlink:href="#a3qCdKYf5H" opacity="1" fill="#000000" fill-opacity="1"></use><g><use xlink:href="#a3qCdKYf5H" opacity="1" fill-opacity="0" stroke="#000000" stroke-width="1" stroke-opacity="0"></use></g></g><g><use xlink:href="#c64EqTqzsf" opacity="1" fill="#000000" fill-opacity="1"></use><g><use xlink:href="#c64EqTqzsf" opacity="1" fill-opacity="0" stroke="#000000" stroke-width="1" stroke-opacity="0"></use></g></g><g><use xlink:href="#b2qpctLvk9" opacity="1" fill="#000000" fill-opacity="1"></use><g><use xlink:href="#b2qpctLvk9" opacity="1" fill-opacity="0" stroke="#000000" stroke-width="1" stroke-opacity="0"></use></g></g><g><use xlink:href="#dn73sgbxT" opacity="1" fill="#000000" fill-opacity="1"></use><g><use xlink:href="#dn73sgbxT" opacity="1" fill-opacity="0" stroke="#000000" stroke-width="1" stroke-opacity="0"></use></g></g><g><use xlink:href="#j1qDyyKFVr" opacity="1" fill="#000000" fill-opacity="1"></use><g><use xlink:href="#j1qDyyKFVr" opacity="1" fill-opacity="0" stroke="#000000" stroke-width="1" stroke-opacity="0"></use></g></g><g><use xlink:href="#bYmYSpWu3" opacity="1" fill="#000000" fill-opacity="1"></use><g><use xlink:href="#bYmYSpWu3" opacity="1" fill-opacity="0" stroke="#000000" stroke-width="1" stroke-opacity="0"></use></g></g><g><use xlink:href="#bCZlwOi6" opacity="1" fill="#000000" fill-opacity="1"></use><g><use xlink:href="#bCZlwOi6" opacity="1" fill-opacity="0" stroke="#000000" stroke-width="1" stroke-opacity="0"></use></g></g><g><use xlink:href="#c6oPaaEtS" opacity="1" fill="#000000" fill-opacity="1"></use><g><use xlink:href="#c6oPaaEtS" opacity="1" fill-opacity="0" stroke="#000000" stroke-width="1" stroke-opacity="0"></use></g></g><g><use xlink:href="#edeSe11yM" opacity="1" fill="#000000" fill-opacity="1"></use><g><use xlink:href="#edeSe11yM" opacity="1" fill-opacity="0" stroke="#000000" stroke-width="1" stroke-opacity="0"></use></g></g><g><use xlink:href="#c1EnQCI4Wv" opacity="1" fill="#88bdbc" fill-opacity="1"></use></g><g><use xlink:href="#b1URMyEnag" opacity="1" fill="#000000" fill-opacity="1"></use><g><use xlink:href="#b1URMyEnag" opacity="1" fill-opacity="0" stroke="#000000" stroke-width="1" stroke-opacity="0"></use></g></g><g><use xlink:href="#a5dnjABODM" opacity="1" fill="#ffffff" fill-opacity="1"></use><g><use xlink:href="#a5dnjABODM" opacity="1" fill-opacity="0" stroke="#000000" stroke-width="0.91" stroke-opacity="1"></use></g></g><g><use xlink:href="#a1lnuuOc3Z" opacity="1" fill="#ffffff" fill-opacity="1"></use><g><use xlink:href="#a1lnuuOc3Z" opacity="1" fill-opacity="0" stroke="#000000" stroke-width="0.91" stroke-opacity="1"></use></g></g><g><use xlink:href="#in8YIrxzJ" opacity="1" fill="#ffffff" fill-opacity="1"></use><g><use xlink:href="#in8YIrxzJ" opacity="1" fill-opacity="0" stroke="#000000" stroke-width="0.91" stroke-opacity="1"></use></g></g><g><use xlink:href="#gkkEXn0ty" opacity="1" fill="#000000" fill-opacity="0"></use><g><use xlink:href="#gkkEXn0ty" opacity="1" fill-opacity="0" stroke="#000000" stroke-width="0.68" stroke-opacity="1"></use></g></g><g><use xlink:href="#b5uzKhMBrS" opacity="1" fill="#000000" fill-opacity="0"></use><g><use xlink:href="#b5uzKhMBrS" opacity="1" fill-opacity="0" stroke="#000000" stroke-width="0.68" stroke-opacity="1"></use></g></g><g><use xlink:href="#kyV00LuYa" opacity="1" fill="#000000" fill-opacity="1"></use><g><use xlink:href="#kyV00LuYa" opacity="1" fill-opacity="0" stroke="#000000" stroke-width="1" stroke-opacity="0"></use></g></g><g><use xlink:href="#a2k5nTyqJa" opacity="1" fill="#000000" fill-opacity="1"></use><g><use xlink:href="#a2k5nTyqJa" opacity="1" fill-opacity="0" stroke="#000000" stroke-width="1" stroke-opacity="0"></use></g></g><g><use xlink:href="#a29G9ScaxQ" opacity="1" fill="#000000" fill-opacity="0"></use><g><use xlink:href="#a29G9ScaxQ" opacity="1" fill-opacity="0" stroke="#ffffff" stroke-width="0.68" stroke-opacity="1"></use></g></g><g><use xlink:href="#a1hbMfne6h" opacity="1" fill="#000000" fill-opacity="0"></use><g><use xlink:href="#a1hbMfne6h" opacity="1" fill-opacity="0" stroke="#ffffff" stroke-width="0.68" stroke-opacity="1"></use></g></g><g><use xlink:href="#e17nNdBUZ" opacity="1" fill="#000000" fill-opacity="0"></use><g><use xlink:href="#e17nNdBUZ" opacity="1" fill-opacity="0" stroke="#ffffff" stroke-width="0.68" stroke-opacity="1"></use></g></g><g><use xlink:href="#ciVzHJaOt" opacity="1" fill="#000000" fill-opacity="0"></use><g><use xlink:href="#ciVzHJaOt" opacity="1" fill-opacity="0" stroke="#ffffff" stroke-width="0.68" stroke-opacity="1"></use></g></g><g><use xlink:href="#g1IjGhKNzi" opacity="1" fill="#000000" fill-opacity="0"></use><g><use xlink:href="#g1IjGhKNzi" opacity="1" fill-opacity="0" stroke="#ffffff" stroke-width="0.68" stroke-opacity="1"></use></g></g><g><use xlink:href="#d4FtdEZoX" opacity="1" fill="#000000" fill-opacity="0"></use><g><use xlink:href="#d4FtdEZoX" opacity="1" fill-opacity="0" stroke="#ffffff" stroke-width="0.68" stroke-opacity="1"></use></g></g><g><use xlink:href="#auF1nDzgP" opacity="1" fill="#000000" fill-opacity="0"></use><g><use xlink:href="#auF1nDzgP" opacity="1" fill-opacity="0" stroke="#ffffff" stroke-width="0.68" stroke-opacity="1"></use></g></g><g><use xlink:href="#d9ImnAg0m" opacity="1" fill="#ffffff" fill-opacity="1"></use><g><use xlink:href="#d9ImnAg0m" opacity="1" fill-opacity="0" stroke="#000000" stroke-width="0.91" stroke-opacity="1"></use></g></g><g><use xlink:href="#i5zBv8SuSB" opacity="1" fill="#ffffff" fill-opacity="1"></use><g><use xlink:href="#i5zBv8SuSB" opacity="1" fill-opacity="0" stroke="#000000" stroke-width="1" stroke-opacity="0"></use></g></g><g><use xlink:href="#bgM8x0h2p" opacity="1" fill="#88bdbc" fill-opacity="1"></use><g><use xlink:href="#bgM8x0h2p" opacity="1" fill-opacity="0" stroke="#000000" stroke-width="1" stroke-opacity="0"></use></g></g><g><use xlink:href="#b1LDHb5et" opacity="1" fill="#88bdbc" fill-opacity="1"></use><g><use xlink:href="#b1LDHb5et" opacity="1" fill-opacity="0" stroke="#000000" stroke-width="1" stroke-opacity="0"></use></g></g><g><g><use xlink:href="#fo6oAJq5Q" opacity="1" fill-opacity="0" stroke="#000000" stroke-width="0.91" stroke-opacity="1"></use></g></g><g><use xlink:href="#cczgEEBXQ" opacity="1" fill="#ffffff" fill-opacity="1"></use><g><use xlink:href="#cczgEEBXQ" opacity="1" fill-opacity="0" stroke="#000000" stroke-width="1" stroke-opacity="0"></use></g></g><g><use xlink:href="#amxUTao3c" opacity="1" fill="#9d4bff" fill-opacity="1"></use><g><use xlink:href="#amxUTao3c" opacity="1" fill-opacity="0" stroke="#000000" stroke-width="1" stroke-opacity="0"></use></g></g><g><use xlink:href="#c1fekI11Pk" opacity="1" fill="#000000" fill-opacity="0"></use><g><use xlink:href="#c1fekI11Pk" opacity="1" fill-opacity="0" stroke="#000000" stroke-width="0.91" stroke-opacity="1"></use></g></g><g><use xlink:href="#alaABQCca" opacity="1" fill="#000000" fill-opacity="0"></use><g><use xlink:href="#alaABQCca" opacity="1" fill-opacity="0" stroke="#000000" stroke-width="0.68" stroke-opacity="1"></use></g></g><g><use xlink:href="#b5PUFAT0Z" opacity="1" fill="#000000" fill-opacity="0"></use><g><use xlink:href="#b5PUFAT0Z" opacity="1" fill-opacity="0" stroke="#000000" stroke-width="0.68" stroke-opacity="1"></use></g></g><g><use xlink:href="#e23DNjfDJ8" opacity="1" fill="#000000" fill-opacity="0"></use><g><use xlink:href="#e23DNjfDJ8" opacity="1" fill-opacity="0" stroke="#000000" stroke-width="0.91" stroke-opacity="1"></use></g></g><g><use xlink:href="#ajX3C1c56" opacity="1" fill="#000000" fill-opacity="0"></use><g><use xlink:href="#ajX3C1c56" opacity="1" fill-opacity="0" stroke="#000000" stroke-width="0.68" stroke-opacity="1"></use></g></g><g><use xlink:href="#adDOyx1Ce" opacity="1" fill="#000000" fill-opacity="0"></use><g><use xlink:href="#adDOyx1Ce" opacity="1" fill-opacity="0" stroke="#000000" stroke-width="0.68" stroke-opacity="1"></use></g></g><g><use xlink:href="#b19Nkh1cYv" opacity="1" fill="#000000" fill-opacity="0"></use><g><use xlink:href="#b19Nkh1cYv" opacity="1" fill-opacity="0" stroke="#000000" stroke-width="0.91" stroke-opacity="1"></use></g></g><g><use xlink:href="#a2TUqcqIGr" opacity="1" fill="#ffffff" fill-opacity="1"></use><g><use xlink:href="#a2TUqcqIGr" opacity="1" fill-opacity="0" stroke="#000000" stroke-width="1" stroke-opacity="0"></use></g></g><g><use xlink:href="#adAnH0i8" opacity="1" fill="#88bdbc" fill-opacity="1"></use><g><use xlink:href="#adAnH0i8" opacity="1" fill-opacity="0" stroke="#000000" stroke-width="1" stroke-opacity="0"></use></g></g><g><use xlink:href="#aoLjSq2Kl" opacity="1" fill="#000000" fill-opacity="0"></use><g><use xlink:href="#aoLjSq2Kl" opacity="1" fill-opacity="0" stroke="#000000" stroke-width="0.91" stroke-opacity="1"></use></g></g><g><use xlink:href="#a73pvgSfI" opacity="1" fill="#ffffff" fill-opacity="1"></use><g><use xlink:href="#a73pvgSfI" opacity="1" fill-opacity="0" stroke="#000000" stroke-width="0.91" stroke-opacity="1"></use></g></g><g><use xlink:href="#c4xuePuyhx" opacity="1" fill="#000000" fill-opacity="0"></use><g><use xlink:href="#c4xuePuyhx" opacity="1" fill-opacity="0" stroke="#000000" stroke-width="0.91" stroke-opacity="1"></use></g></g><g><g><use xlink:href="#a5KSF8wiV" opacity="1" fill-opacity="0" stroke="#000000" stroke-width="1" stroke-opacity="0"></use></g></g><g><use xlink:href="#fWKdZrhQw" opacity="1" fill="#ffffff" fill-opacity="1"></use><g><use xlink:href="#fWKdZrhQw" opacity="1" fill-opacity="0" stroke="#000000" stroke-width="1" stroke-opacity="0"></use></g></g><g><use xlink:href="#a1gHN8jjwF" opacity="1" fill="#000000" fill-opacity="0"></use><g><use xlink:href="#a1gHN8jjwF" opacity="1" fill-opacity="0" stroke="#000000" stroke-width="0.91" stroke-opacity="1"></use></g></g><g><use xlink:href="#b9iMNsQNc" opacity="1" fill="#000000" fill-opacity="1"></use><g><use xlink:href="#b9iMNsQNc" opacity="1" fill-opacity="0" stroke="#000000" stroke-width="1" stroke-opacity="0"></use></g></g><g><use xlink:href="#a58RTwKSo" opacity="1" fill="#ffffff" fill-opacity="1"></use><g><use xlink:href="#a58RTwKSo" opacity="1" fill-opacity="0" stroke="#000000" stroke-width="1" stroke-opacity="0"></use></g></g><g><use xlink:href="#h1PA65dxO1" opacity="1" fill="#9d4bff" fill-opacity="1"></use><g><use xlink:href="#h1PA65dxO1" opacity="1" fill-opacity="0" stroke="#000000" stroke-width="1" stroke-opacity="0"></use></g></g><g><use xlink:href="#kXvovmGeI" opacity="1" fill="#000000" fill-opacity="0"></use><g><use xlink:href="#kXvovmGeI" opacity="1" fill-opacity="0" stroke="#000000" stroke-width="0.91" stroke-opacity="1"></use></g></g><g><use xlink:href="#cat4dk0fd" opacity="1" fill="#ffffff" fill-opacity="1"></use><g><use xlink:href="#cat4dk0fd" opacity="1" fill-opacity="0" stroke="#000000" stroke-width="1" stroke-opacity="0"></use></g></g><g><use xlink:href="#b3SNu4U4C" opacity="1" fill="#88bdbc" fill-opacity="1"></use></g><g><use xlink:href="#eG9Sev4bg" opacity="1" fill="#000000" fill-opacity="0"></use><g><use xlink:href="#eG9Sev4bg" opacity="1" fill-opacity="0" stroke="#000000" stroke-width="0.91" stroke-opacity="1"></use></g></g><g><use xlink:href="#k3peuIlb5f" opacity="1" fill="#ffffff" fill-opacity="1"></use><g><use xlink:href="#k3peuIlb5f" opacity="1" fill-opacity="0" stroke="#000000" stroke-width="1" stroke-opacity="0"></use></g></g><g><use xlink:href="#ejrGXcxvw" opacity="1" fill="#88bdbc" fill-opacity="1"></use><g><use xlink:href="#ejrGXcxvw" opacity="1" fill-opacity="0" stroke="#000000" stroke-width="1" stroke-opacity="0"></use></g></g><g><g><use xlink:href="#b2ghlgkTX" opacity="1" fill-opacity="0" stroke="#000000" stroke-width="0.91" stroke-opacity="1"></use></g></g><g><use xlink:href="#a1Sfm29Qmf" opacity="1" fill="#ffffff" fill-opacity="1"></use><g><use xlink:href="#a1Sfm29Qmf" opacity="1" fill-opacity="0" stroke="#000000" stroke-width="1" stroke-opacity="0"></use></g></g><g><use xlink:href="#d1x8GXrlpy" opacity="1" fill="#000000" fill-opacity="0"></use><g><use xlink:href="#d1x8GXrlpy" opacity="1" fill-opacity="0" stroke="#000000" stroke-width="0.91" stroke-opacity="1"></use></g></g><g><use xlink:href="#b1lrgTz5pN" opacity="1" fill="#ffffff" fill-opacity="1"></use><g><use xlink:href="#b1lrgTz5pN" opacity="1" fill-opacity="0" stroke="#000000" stroke-width="1" stroke-opacity="0"></use></g></g><g><use xlink:href="#f4kY6m63k" opacity="1" fill="#000000" fill-opacity="0"></use><g><use xlink:href="#f4kY6m63k" opacity="1" fill-opacity="0" stroke="#000000" stroke-width="0.91" stroke-opacity="1"></use></g></g><g><use xlink:href="#cgPULJw6v" opacity="1" fill="#ffffff" fill-opacity="1"></use><g><use xlink:href="#cgPULJw6v" opacity="1" fill-opacity="0" stroke="#000000" stroke-width="1" stroke-opacity="0"></use></g></g><g><use xlink:href="#aDx1zd5v0" opacity="1" fill="#000000" fill-opacity="0"></use><g><use xlink:href="#aDx1zd5v0" opacity="1" fill-opacity="0" stroke="#000000" stroke-width="0.91" stroke-opacity="1"></use></g></g><g><use xlink:href="#f3OONgY9aE" opacity="1" fill="#ffffff" fill-opacity="1"></use><g><use xlink:href="#f3OONgY9aE" opacity="1" fill-opacity="0" stroke="#000000" stroke-width="1" stroke-opacity="0"></use></g></g><g><use xlink:href="#b96bTXWmm" opacity="1" fill="#000000" fill-opacity="0"></use><g><use xlink:href="#b96bTXWmm" opacity="1" fill-opacity="0" stroke="#000000" stroke-width="0.91" stroke-opacity="1"></use></g></g><g><use xlink:href="#b1gowK77ud" opacity="1" fill="#000000" fill-opacity="1"></use><g><use xlink:href="#b1gowK77ud" opacity="1" fill-opacity="0" stroke="#000000" stroke-width="1" stroke-opacity="0"></use></g></g><g><use xlink:href="#bsIskLdtR" opacity="1" fill="#000000" fill-opacity="1"></use><g><use xlink:href="#bsIskLdtR" opacity="1" fill-opacity="0" stroke="#000000" stroke-width="1" stroke-opacity="0"></use></g></g><g><use xlink:href="#g1981i53qf" opacity="1" fill="#000000" fill-opacity="1"></use><g><use xlink:href="#g1981i53qf" opacity="1" fill-opacity="0" stroke="#000000" stroke-width="1" stroke-opacity="0"></use></g></g><g><use xlink:href="#h2MlVJDEUY" opacity="1" fill="#000000" fill-opacity="0"></use><g><use xlink:href="#h2MlVJDEUY" opacity="1" fill-opacity="0" stroke="#ffffff" stroke-width="0.68" stroke-opacity="1"></use></g></g><g><use xlink:href="#c3qjjbTCFB" opacity="1" fill="#000000" fill-opacity="0"></use><g><use xlink:href="#c3qjjbTCFB" opacity="1" fill-opacity="0" stroke="#ffffff" stroke-width="0.68" stroke-opacity="1"></use></g></g><g><use xlink:href="#aJTtV7Bvc" opacity="1" fill="#000000" fill-opacity="0"></use><g><use xlink:href="#aJTtV7Bvc" opacity="1" fill-opacity="0" stroke="#ffffff" stroke-width="0.68" stroke-opacity="1"></use></g></g><g><use xlink:href="#b15FtAQqbE" opacity="1" fill="#000000" fill-opacity="0"></use><g><use xlink:href="#b15FtAQqbE" opacity="1" fill-opacity="0" stroke="#ffffff" stroke-width="0.68" stroke-opacity="1"></use></g></g></g></g></svg>